{
	"asset":{
		"generator":"Khronos glTF Blender I/O v3.6.27",
		"version":"2.0"
	},
	"scene":0,
	"scenes":[
		{
			"name":"Scene",
			"nodes":[
				0
			]
		}
	],
	"nodes":[
		{
			"mesh":0,
			"name":"1",
			"rotation":[
				-0.03661247342824936,
				-0.07800647616386414,
				-0.07330872118473053,
				0.9935795664787292
			],
			"scale":[
				99.99990844726562,
				99.99995422363281,
				99.99995422363281
			],
			"translation":[
				-153.5350799560547,
				-89.71337890625,
				-115.41683959960938
			]
		}
	],
	"materials":[
		{
			"doubleSided":true,
			"emissiveFactor":[
				1,
				1,
				1
			],
			"emissiveTexture":{
				"index":0
			},
			"name":"M_Octopus",
			"pbrMetallicRoughness":{
				"baseColorTexture":{
					"index":1
				},
				"metallicFactor":0,
				"roughnessFactor":0.8211145401000977
			}
		}
	],
	"meshes":[
		{
			"name":"001-0-1",
			"primitives":[
				{
					"attributes":{
						"COLOR_0":0,
						"POSITION":1,
						"NORMAL":2,
						"TEXCOORD_0":3
					},
					"indices":4,
					"material":0
				}
			]
		}
	],
	"textures":[
		{
			"sampler":0,
			"source":0
		},
		{
			"sampler":0,
			"source":0
		}
	],
	"images":[
		{
			"bufferView":5,
			"mimeType":"image/png",
			"name":"T_Octopus"
		}
	],
	"accessors":[
		{
			"bufferView":0,
			"componentType":5123,
			"count":1539,
			"normalized":true,
			"type":"VEC4"
		},
		{
			"bufferView":1,
			"componentType":5126,
			"count":1539,
			"max":[
				0.9413736462593079,
				2.477123975753784,
				1.0393999814987183
			],
			"min":[
				-0.9413729906082153,
				0.0854296013712883,
				-1.0312837362289429
			],
			"type":"VEC3"
		},
		{
			"bufferView":2,
			"componentType":5126,
			"count":1539,
			"type":"VEC3"
		},
		{
			"bufferView":3,
			"componentType":5126,
			"count":1539,
			"type":"VEC2"
		},
		{
			"bufferView":4,
			"componentType":5123,
			"count":6732,
			"type":"SCALAR"
		}
	],
	"bufferViews":[
		{
			"buffer":0,
			"byteLength":12312,
			"byteOffset":0,
			"target":34962
		},
		{
			"buffer":0,
			"byteLength":18468,
			"byteOffset":12312,
			"target":34962
		},
		{
			"buffer":0,
			"byteLength":18468,
			"byteOffset":30780,
			"target":34962
		},
		{
			"buffer":0,
			"byteLength":12312,
			"byteOffset":49248,
			"target":34962
		},
		{
			"buffer":0,
			"byteLength":13464,
			"byteOffset":61560,
			"target":34963
		},
		{
			"buffer":0,
			"byteLength":202,
			"byteOffset":75024
		}
	],
	"samplers":[
		{
			"magFilter":9729,
			"minFilter":9987
		}
	],
	"buffers":[
		{
			"byteLength":75228,
			"uri":"data:application/octet-stream;base64,"
		}
	]
}
