{
	"asset":{
		"generator":"Khronos glTF Blender I/O v3.6.27",
		"version":"2.0"
	},
	"scene":0,
	"scenes":[
		{
			"name":"Scene",
			"nodes":[
				0
			]
		}
	],
	"nodes":[
		{
			"mesh":0,
			"name":"huitugou_5168_42",
			"rotation":[
				0,
				-0.2547215521335602,
				0,
				0.9670145511627197
			],
			"scale":[
				0.2400001436471939,
				0.24000005424022675,
				0.24000002443790436
			],
			"translation":[
				-0.8149063587188721,
				0.30492812395095825,
				-0.8773524761199951
			]
		}
	],
	"materials":[
		{
			"doubleSided":true,
			"emissiveFactor":[
				1,
				1,
				1
			],
			"emissiveTexture":{
				"index":0
			},
			"name":"Mat_Bighorn",
			"pbrMetallicRoughness":{
				"baseColorTexture":{
					"index":1
				},
				"metallicFactor":0,
				"roughnessFactor":0.8211145401000977
			}
		}
	],
	"meshes":[
		{
			"name":"\u7f51\u683c.040",
			"primitives":[
				{
					"attributes":{
						"COLOR_0":0,
						"POSITION":1,
						"NORMAL":2,
						"TEXCOORD_0":3
					},
					"indices":4,
					"material":0
				}
			]
		}
	],
	"textures":[
		{
			"sampler":0,
			"source":0
		},
		{
			"sampler":0,
			"source":0
		}
	],
	"images":[
		{
			"bufferView":5,
			"mimeType":"image/png",
			"name":"Tex_Bighorn"
		}
	],
	"accessors":[
		{
			"bufferView":0,
			"componentType":5123,
			"count":781,
			"normalized":true,
			"type":"VEC4"
		},
		{
			"bufferView":1,
			"componentType":5126,
			"count":781,
			"max":[
				0.5476690530776978,
				1.1242631673812866,
				1.232175588607788
			],
			"min":[
				-0.5476970076560974,
				-1.2439305782318115,
				-1.5150198936462402
			],
			"type":"VEC3"
		},
		{
			"bufferView":2,
			"componentType":5126,
			"count":781,
			"type":"VEC3"
		},
		{
			"bufferView":3,
			"componentType":5126,
			"count":781,
			"type":"VEC2"
		},
		{
			"bufferView":4,
			"componentType":5123,
			"count":3546,
			"type":"SCALAR"
		}
	],
	"bufferViews":[
		{
			"buffer":0,
			"byteLength":6248,
			"byteOffset":0,
			"target":34962
		},
		{
			"buffer":0,
			"byteLength":9372,
			"byteOffset":6248,
			"target":34962
		},
		{
			"buffer":0,
			"byteLength":9372,
			"byteOffset":15620,
			"target":34962
		},
		{
			"buffer":0,
			"byteLength":6248,
			"byteOffset":24992,
			"target":34962
		},
		{
			"buffer":0,
			"byteLength":7092,
			"byteOffset":31240,
			"target":34963
		},
		{
			"buffer":0,
			"byteLength":114,
			"byteOffset":38332
		}
	],
	"samplers":[
		{
			"magFilter":9729,
			"minFilter":9987
		}
	],
	"buffers":[
		{
			"byteLength":38448,
			"uri":"data:application/octet-stream;base64,"
		}
	]
}
