{
	"asset":{
		"generator":"Khronos glTF Blender I/O v3.6.27",
		"version":"2.0"
	},
	"scene":0,
	"scenes":[
		{
			"name":"Scene",
			"nodes":[
				0
			]
		}
	],
	"nodes":[
		{
			"mesh":0,
			"name":"huitugou_5168_88",
			"rotation":[
				0.006678642705082893,
				-0.2380082607269287,
				0.008860873989760876,
				0.9711997509002686
			],
			"scale":[
				0.23999996483325958,
				0.23999997973442078,
				0.23999997973442078
			],
			"translation":[
				-0.5143633484840393,
				0.192987322807312,
				-0.6954964399337769
			]
		}
	],
	"materials":[
		{
			"doubleSided":true,
			"emissiveFactor":[
				1,
				1,
				1
			],
			"emissiveTexture":{
				"index":0
			},
			"name":"Mat_Penguin",
			"pbrMetallicRoughness":{
				"baseColorTexture":{
					"index":1
				},
				"metallicFactor":0,
				"roughnessFactor":0.8211145401000977
			}
		}
	],
	"meshes":[
		{
			"name":"\u7f51\u683c.087",
			"primitives":[
				{
					"attributes":{
						"COLOR_0":0,
						"POSITION":1,
						"NORMAL":2,
						"TEXCOORD_0":3
					},
					"indices":4,
					"material":0
				}
			]
		}
	],
	"textures":[
		{
			"sampler":0,
			"source":0
		},
		{
			"sampler":0,
			"source":0
		}
	],
	"images":[
		{
			"bufferView":5,
			"mimeType":"image/png",
			"name":"Tex_Penguin"
		}
	],
	"accessors":[
		{
			"bufferView":0,
			"componentType":5123,
			"count":668,
			"normalized":true,
			"type":"VEC4"
		},
		{
			"bufferView":1,
			"componentType":5126,
			"count":668,
			"max":[
				0.5801693201065063,
				1.1171507835388184,
				0.5051237940788269
			],
			"min":[
				-0.5775877237319946,
				-0.7775083780288696,
				-0.5754265189170837
			],
			"type":"VEC3"
		},
		{
			"bufferView":2,
			"componentType":5126,
			"count":668,
			"type":"VEC3"
		},
		{
			"bufferView":3,
			"componentType":5126,
			"count":668,
			"type":"VEC2"
		},
		{
			"bufferView":4,
			"componentType":5123,
			"count":3504,
			"type":"SCALAR"
		}
	],
	"bufferViews":[
		{
			"buffer":0,
			"byteLength":5344,
			"byteOffset":0,
			"target":34962
		},
		{
			"buffer":0,
			"byteLength":8016,
			"byteOffset":5344,
			"target":34962
		},
		{
			"buffer":0,
			"byteLength":8016,
			"byteOffset":13360,
			"target":34962
		},
		{
			"buffer":0,
			"byteLength":5344,
			"byteOffset":21376,
			"target":34962
		},
		{
			"buffer":0,
			"byteLength":7008,
			"byteOffset":26720,
			"target":34963
		},
		{
			"buffer":0,
			"byteLength":112,
			"byteOffset":33728
		}
	],
	"samplers":[
		{
			"magFilter":9729,
			"minFilter":9987
		}
	],
	"buffers":[
		{
			"byteLength":33840,
			"uri":"data:application/octet-stream;base64,"
		}
	]
}
