{
	"asset":{
		"generator":"Khronos glTF Blender I/O v3.6.27",
		"version":"2.0"
	},
	"scene":0,
	"scenes":[
		{
			"name":"Scene",
			"nodes":[
				0
			]
		}
	],
	"nodes":[
		{
			"mesh":0,
			"name":"huitugou_5168_01",
			"rotation":[
				0,
				-0.41356411576271057,
				0,
				0.9104750156402588
			],
			"scale":[
				0.23999997973442078,
				0.23999997973442078,
				0.23999997973442078
			],
			"translation":[
				-0.44241341948509216,
				0.3030923008918762,
				-0.8939038515090942
			]
		}
	],
	"materials":[
		{
			"doubleSided":true,
			"emissiveFactor":[
				1,
				1,
				1
			],
			"emissiveTexture":{
				"index":0
			},
			"name":"Mat_PolarBear",
			"pbrMetallicRoughness":{
				"baseColorTexture":{
					"index":1
				},
				"metallicFactor":0,
				"roughnessFactor":0.8211145401000977
			}
		}
	],
	"meshes":[
		{
			"name":"\u7f51\u683c.086",
			"primitives":[
				{
					"attributes":{
						"COLOR_0":0,
						"POSITION":1,
						"NORMAL":2,
						"TEXCOORD_0":3
					},
					"indices":4,
					"material":0
				}
			]
		}
	],
	"textures":[
		{
			"sampler":0,
			"source":0
		},
		{
			"sampler":0,
			"source":0
		}
	],
	"images":[
		{
			"bufferView":5,
			"mimeType":"image/png",
			"name":"Tex_PolarBear"
		}
	],
	"accessors":[
		{
			"bufferView":0,
			"componentType":5123,
			"count":765,
			"normalized":true,
			"type":"VEC4"
		},
		{
			"bufferView":1,
			"componentType":5126,
			"count":765,
			"max":[
				0.8999858498573303,
				0.8197057247161865,
				1.7524222135543823
			],
			"min":[
				-0.9084106087684631,
				-1.2362816333770752,
				-1.7445311546325684
			],
			"type":"VEC3"
		},
		{
			"bufferView":2,
			"componentType":5126,
			"count":765,
			"type":"VEC3"
		},
		{
			"bufferView":3,
			"componentType":5126,
			"count":765,
			"type":"VEC2"
		},
		{
			"bufferView":4,
			"componentType":5123,
			"count":4194,
			"type":"SCALAR"
		}
	],
	"bufferViews":[
		{
			"buffer":0,
			"byteLength":6120,
			"byteOffset":0,
			"target":34962
		},
		{
			"buffer":0,
			"byteLength":9180,
			"byteOffset":6120,
			"target":34962
		},
		{
			"buffer":0,
			"byteLength":9180,
			"byteOffset":15300,
			"target":34962
		},
		{
			"buffer":0,
			"byteLength":6120,
			"byteOffset":24480,
			"target":34962
		},
		{
			"buffer":0,
			"byteLength":8388,
			"byteOffset":30600,
			"target":34963
		},
		{
			"buffer":0,
			"byteLength":2747,
			"byteOffset":38988
		}
	],
	"samplers":[
		{
			"magFilter":9729,
			"minFilter":9987
		}
	],
	"buffers":[
		{
			"byteLength":41736,
			"uri":"data:application/octet-stream;base64,"
		}
	]
}
