{
	"asset":{
		"generator":"Khronos glTF Blender I/O v3.6.27",
		"version":"2.0"
	},
	"scene":0,
	"scenes":[
		{
			"name":"Scene",
			"nodes":[
				0
			]
		}
	],
	"nodes":[
		{
			"mesh":0,
			"name":"huitugou_5168_83",
			"rotation":[
				0,
				-0.32710111141204834,
				0,
				0.9449893236160278
			],
			"scale":[
				0.23999986052513123,
				0.23999983072280884,
				0.23999984562397003
			],
			"translation":[
				-0.9615731239318848,
				0.24723267555236816,
				-1.0587527751922607
			]
		}
	],
	"materials":[
		{
			"doubleSided":true,
			"emissiveFactor":[
				1,
				1,
				1
			],
			"emissiveTexture":{
				"index":0
			},
			"name":"Mat_Walrus",
			"pbrMetallicRoughness":{
				"baseColorTexture":{
					"index":1
				},
				"metallicFactor":0,
				"roughnessFactor":0.8211145401000977
			}
		}
	],
	"meshes":[
		{
			"name":"\u7f51\u683c.081",
			"primitives":[
				{
					"attributes":{
						"COLOR_0":0,
						"POSITION":1,
						"NORMAL":2,
						"TEXCOORD_0":3
					},
					"indices":4,
					"material":0
				}
			]
		}
	],
	"textures":[
		{
			"sampler":0,
			"source":0
		},
		{
			"sampler":0,
			"source":0
		}
	],
	"images":[
		{
			"bufferView":5,
			"mimeType":"image/png",
			"name":"Tex_Walrus"
		}
	],
	"accessors":[
		{
			"bufferView":0,
			"componentType":5123,
			"count":1246,
			"normalized":true,
			"type":"VEC4"
		},
		{
			"bufferView":1,
			"componentType":5126,
			"count":1246,
			"max":[
				1.3534034490585327,
				1.009501338005066,
				0.8564811944961548
			],
			"min":[
				-1.3527110815048218,
				-1.0035326480865479,
				-1.5217642784118652
			],
			"type":"VEC3"
		},
		{
			"bufferView":2,
			"componentType":5126,
			"count":1246,
			"type":"VEC3"
		},
		{
			"bufferView":3,
			"componentType":5126,
			"count":1246,
			"type":"VEC2"
		},
		{
			"bufferView":4,
			"componentType":5123,
			"count":6798,
			"type":"SCALAR"
		}
	],
	"bufferViews":[
		{
			"buffer":0,
			"byteLength":9968,
			"byteOffset":0,
			"target":34962
		},
		{
			"buffer":0,
			"byteLength":14952,
			"byteOffset":9968,
			"target":34962
		},
		{
			"buffer":0,
			"byteLength":14952,
			"byteOffset":24920,
			"target":34962
		},
		{
			"buffer":0,
			"byteLength":9968,
			"byteOffset":39872,
			"target":34962
		},
		{
			"buffer":0,
			"byteLength":13596,
			"byteOffset":49840,
			"target":34963
		},
		{
			"buffer":0,
			"byteLength":2745,
			"byteOffset":63436
		}
	],
	"samplers":[
		{
			"magFilter":9729,
			"minFilter":9987
		}
	],
	"buffers":[
		{
			"byteLength":66184,
			"uri":"data:application/octet-stream;base64,"
		}
	]
}
