{
	"asset":{
		"generator":"Khronos glTF Blender I/O v3.6.27",
		"version":"2.0"
	},
	"scene":0,
	"scenes":[
		{
			"name":"Scene",
			"nodes":[
				0
			]
		}
	],
	"nodes":[
		{
			"mesh":0,
			"name":"huitugou_5168_34",
			"rotation":[
				0,
				-0.20614688098430634,
				0,
				0.9785210490226746
			],
			"scale":[
				0.23999997973442078,
				0.24000008404254913,
				0.24000005424022675
			],
			"translation":[
				-0.7881351709365845,
				0.20816868543624878,
				-0.9518572092056274
			]
		}
	],
	"materials":[
		{
			"doubleSided":true,
			"emissiveFactor":[
				1,
				1,
				1
			],
			"emissiveTexture":{
				"index":0
			},
			"name":"Mat_Dolphin",
			"pbrMetallicRoughness":{
				"baseColorTexture":{
					"index":1
				},
				"roughnessFactor":0.8211145401000977
			}
		}
	],
	"meshes":[
		{
			"name":"\u7f51\u683c.032",
			"primitives":[
				{
					"attributes":{
						"COLOR_0":0,
						"POSITION":1,
						"NORMAL":2,
						"TEXCOORD_0":3
					},
					"indices":4,
					"material":0
				}
			]
		}
	],
	"textures":[
		{
			"sampler":0,
			"source":0
		},
		{
			"sampler":0,
			"source":0
		}
	],
	"images":[
		{
			"bufferView":5,
			"mimeType":"image/png",
			"name":"Tex_Dolphin"
		}
	],
	"accessors":[
		{
			"bufferView":0,
			"componentType":5123,
			"count":662,
			"normalized":true,
			"type":"VEC4"
		},
		{
			"bufferView":1,
			"componentType":5126,
			"count":662,
			"max":[
				0.821763277053833,
				1.2349364757537842,
				2.059955358505249
			],
			"min":[
				-0.821820080280304,
				-0.8407625555992126,
				-2.194038152694702
			],
			"type":"VEC3"
		},
		{
			"bufferView":2,
			"componentType":5126,
			"count":662,
			"type":"VEC3"
		},
		{
			"bufferView":3,
			"componentType":5126,
			"count":662,
			"type":"VEC2"
		},
		{
			"bufferView":4,
			"componentType":5123,
			"count":3288,
			"type":"SCALAR"
		}
	],
	"bufferViews":[
		{
			"buffer":0,
			"byteLength":5296,
			"byteOffset":0,
			"target":34962
		},
		{
			"buffer":0,
			"byteLength":7944,
			"byteOffset":5296,
			"target":34962
		},
		{
			"buffer":0,
			"byteLength":7944,
			"byteOffset":13240,
			"target":34962
		},
		{
			"buffer":0,
			"byteLength":5296,
			"byteOffset":21184,
			"target":34962
		},
		{
			"buffer":0,
			"byteLength":6576,
			"byteOffset":26480,
			"target":34963
		},
		{
			"buffer":0,
			"byteLength":114,
			"byteOffset":33056
		}
	],
	"samplers":[
		{
			"magFilter":9729,
			"minFilter":9987
		}
	],
	"buffers":[
		{
			"byteLength":33172,
			"uri":"data:application/octet-stream;base64,"
		}
	]
}
