{
	"asset":{
		"generator":"Khronos glTF Blender I/O v3.6.27",
		"version":"2.0"
	},
	"scene":0,
	"scenes":[
		{
			"name":"Scene",
			"nodes":[
				0
			]
		}
	],
	"nodes":[
		{
			"mesh":0,
			"name":"8",
			"rotation":[
				-0.17556320130825043,
				-0.23100972175598145,
				0.12052310258150101,
				0.9493609666824341
			],
			"scale":[
				50.018165588378906,
				50.01814651489258,
				50.01814651489258
			],
			"translation":[
				-196.00335693359375,
				-106.54266357421875,
				-216.31521606445312
			]
		}
	],
	"materials":[
		{
			"doubleSided":true,
			"emissiveFactor":[
				1,
				1,
				1
			],
			"emissiveTexture":{
				"index":0
			},
			"name":"M_Whale",
			"pbrMetallicRoughness":{
				"baseColorTexture":{
					"index":1
				},
				"metallicFactor":0,
				"roughnessFactor":0.8040408492088318
			}
		}
	],
	"meshes":[
		{
			"name":"008-0-8",
			"primitives":[
				{
					"attributes":{
						"COLOR_0":0,
						"POSITION":1,
						"NORMAL":2,
						"TEXCOORD_0":3
					},
					"indices":4,
					"material":0
				}
			]
		}
	],
	"textures":[
		{
			"sampler":0,
			"source":0
		},
		{
			"sampler":0,
			"source":0
		}
	],
	"images":[
		{
			"bufferView":5,
			"mimeType":"image/png",
			"name":"T_Whale"
		}
	],
	"accessors":[
		{
			"bufferView":0,
			"componentType":5123,
			"count":1192,
			"normalized":true,
			"type":"VEC4"
		},
		{
			"bufferView":1,
			"componentType":5126,
			"count":1192,
			"max":[
				3.26170015335083,
				2.9982693195343018,
				3.712559938430786
			],
			"min":[
				-3.261699914932251,
				-0.11048900336027145,
				-6.850656032562256
			],
			"type":"VEC3"
		},
		{
			"bufferView":2,
			"componentType":5126,
			"count":1192,
			"type":"VEC3"
		},
		{
			"bufferView":3,
			"componentType":5126,
			"count":1192,
			"type":"VEC2"
		},
		{
			"bufferView":4,
			"componentType":5123,
			"count":5364,
			"type":"SCALAR"
		}
	],
	"bufferViews":[
		{
			"buffer":0,
			"byteLength":9536,
			"byteOffset":0,
			"target":34962
		},
		{
			"buffer":0,
			"byteLength":14304,
			"byteOffset":9536,
			"target":34962
		},
		{
			"buffer":0,
			"byteLength":14304,
			"byteOffset":23840,
			"target":34962
		},
		{
			"buffer":0,
			"byteLength":9536,
			"byteOffset":38144,
			"target":34962
		},
		{
			"buffer":0,
			"byteLength":10728,
			"byteOffset":47680,
			"target":34963
		},
		{
			"buffer":0,
			"byteLength":199,
			"byteOffset":58408
		}
	],
	"samplers":[
		{
			"magFilter":9729,
			"minFilter":9987
		}
	],
	"buffers":[
		{
			"byteLength":58608,
			"uri":"data:application/octet-stream;base64,"
		}
	]
}
