{
	"asset":{
		"generator":"Khronos glTF Blender I/O v3.6.27",
		"version":"2.0"
	},
	"scene":0,
	"scenes":[
		{
			"name":"Scene",
			"nodes":[
				0
			]
		}
	],
	"nodes":[
		{
			"mesh":0,
			"name":"huitugou_5168_03",
			"rotation":[
				0,
				-0.26962488889694214,
				0,
				0.9629654884338379
			],
			"scale":[
				0.24000032246112823,
				0.24000030755996704,
				0.24000023305416107
			],
			"translation":[
				-1.2878100872039795,
				0.2701048254966736,
				-0.9173885583877563
			]
		}
	],
	"materials":[
		{
			"doubleSided":true,
			"emissiveFactor":[
				1,
				1,
				1
			],
			"emissiveTexture":{
				"index":0
			},
			"name":"Mat_Tiger",
			"pbrMetallicRoughness":{
				"baseColorTexture":{
					"index":1
				},
				"metallicFactor":0,
				"roughnessFactor":0.8211145401000977
			}
		}
	],
	"meshes":[
		{
			"name":"\u7f51\u683c.001",
			"primitives":[
				{
					"attributes":{
						"COLOR_0":0,
						"POSITION":1,
						"NORMAL":2,
						"TEXCOORD_0":3
					},
					"indices":4,
					"material":0
				}
			]
		}
	],
	"textures":[
		{
			"sampler":0,
			"source":0
		},
		{
			"sampler":0,
			"source":0
		}
	],
	"images":[
		{
			"bufferView":5,
			"mimeType":"image/png",
			"name":"Tex_Tiger"
		}
	],
	"accessors":[
		{
			"bufferView":0,
			"componentType":5123,
			"count":1527,
			"normalized":true,
			"type":"VEC4"
		},
		{
			"bufferView":1,
			"componentType":5126,
			"count":1527,
			"max":[
				0.5121651887893677,
				1.2164292335510254,
				1.461010456085205
			],
			"min":[
				-0.5121188163757324,
				-1.0988291501998901,
				-1.8330628871917725
			],
			"type":"VEC3"
		},
		{
			"bufferView":2,
			"componentType":5126,
			"count":1527,
			"type":"VEC3"
		},
		{
			"bufferView":3,
			"componentType":5126,
			"count":1527,
			"type":"VEC2"
		},
		{
			"bufferView":4,
			"componentType":5123,
			"count":5670,
			"type":"SCALAR"
		}
	],
	"bufferViews":[
		{
			"buffer":0,
			"byteLength":12216,
			"byteOffset":0,
			"target":34962
		},
		{
			"buffer":0,
			"byteLength":18324,
			"byteOffset":12216,
			"target":34962
		},
		{
			"buffer":0,
			"byteLength":18324,
			"byteOffset":30540,
			"target":34962
		},
		{
			"buffer":0,
			"byteLength":12216,
			"byteOffset":48864,
			"target":34962
		},
		{
			"buffer":0,
			"byteLength":11340,
			"byteOffset":61080,
			"target":34963
		},
		{
			"buffer":0,
			"byteLength":114,
			"byteOffset":72420
		}
	],
	"samplers":[
		{
			"magFilter":9729,
			"minFilter":9987
		}
	],
	"buffers":[
		{
			"byteLength":72536,
			"uri":"data:application/octet-stream;base64,"
		}
	]
}
