{
	"asset":{
		"generator":"Khronos glTF Blender I/O v3.6.27",
		"version":"2.0"
	},
	"scene":0,
	"scenes":[
		{
			"name":"Scene",
			"nodes":[
				0
			]
		}
	],
	"nodes":[
		{
			"mesh":0,
			"name":"huitugou_5168_47",
			"rotation":[
				0,
				-0.3093644678592682,
				0,
				0.9509435296058655
			],
			"scale":[
				0.2399998903274536,
				0.2399999350309372,
				0.2399999499320984
			],
			"translation":[
				-0.8938717842102051,
				0.41535690426826477,
				-0.7885063290596008
			]
		}
	],
	"materials":[
		{
			"doubleSided":true,
			"emissiveFactor":[
				1,
				1,
				1
			],
			"emissiveTexture":{
				"index":0
			},
			"name":"Mat_Zebra",
			"pbrMetallicRoughness":{
				"baseColorTexture":{
					"index":1
				},
				"metallicFactor":0,
				"roughnessFactor":0.8211145401000977
			}
		}
	],
	"meshes":[
		{
			"name":"\u7f51\u683c.045",
			"primitives":[
				{
					"attributes":{
						"COLOR_0":0,
						"POSITION":1,
						"NORMAL":2,
						"TEXCOORD_0":3
					},
					"indices":4,
					"material":0
				}
			]
		}
	],
	"textures":[
		{
			"sampler":0,
			"source":0
		},
		{
			"sampler":0,
			"source":0
		}
	],
	"images":[
		{
			"bufferView":5,
			"mimeType":"image/png",
			"name":"Tex_Zebra"
		}
	],
	"accessors":[
		{
			"bufferView":0,
			"componentType":5123,
			"count":1135,
			"normalized":true,
			"type":"VEC4"
		},
		{
			"bufferView":1,
			"componentType":5126,
			"count":1135,
			"max":[
				0.5446110367774963,
				1.3975671529769897,
				1.4944801330566406
			],
			"min":[
				-0.544663667678833,
				-1.704048752784729,
				-1.9334874153137207
			],
			"type":"VEC3"
		},
		{
			"bufferView":2,
			"componentType":5126,
			"count":1135,
			"type":"VEC3"
		},
		{
			"bufferView":3,
			"componentType":5126,
			"count":1135,
			"type":"VEC2"
		},
		{
			"bufferView":4,
			"componentType":5123,
			"count":4674,
			"type":"SCALAR"
		}
	],
	"bufferViews":[
		{
			"buffer":0,
			"byteLength":9080,
			"byteOffset":0,
			"target":34962
		},
		{
			"buffer":0,
			"byteLength":13620,
			"byteOffset":9080,
			"target":34962
		},
		{
			"buffer":0,
			"byteLength":13620,
			"byteOffset":22700,
			"target":34962
		},
		{
			"buffer":0,
			"byteLength":9080,
			"byteOffset":36320,
			"target":34962
		},
		{
			"buffer":0,
			"byteLength":9348,
			"byteOffset":45400,
			"target":34963
		},
		{
			"buffer":0,
			"byteLength":2747,
			"byteOffset":54748
		}
	],
	"samplers":[
		{
			"magFilter":9729,
			"minFilter":9987
		}
	],
	"buffers":[
		{
			"byteLength":57496,
			"uri":"data:application/octet-stream;base64,"
		}
	]
}
